<svg width="524" height="354" viewBox="0 0 524 354" fill="none" xmlns="http://www.w3.org/2000/svg">
<path d="M107.368 353.547H46.2416C45.1675 353.547 44.2969 352.676 44.2969 351.602V350.534C44.2969 349.46 45.1675 348.589 46.2416 348.589H107.368C108.441 348.589 109.312 349.46 109.312 350.534V351.602C109.312 352.676 108.441 353.547 107.368 353.547Z" fill="#ACBFC3"/>
<path d="M494.701 353.547H477.976C476.902 353.547 476.031 352.676 476.031 351.602V350.534C476.031 349.46 476.902 348.589 477.976 348.589H494.701C495.775 348.589 496.645 349.46 496.645 350.534V351.602C496.645 352.676 495.775 353.547 494.701 353.547Z" fill="#ACBFC3"/>
<path d="M222.406 353.547H161.281C160.207 353.547 159.336 352.676 159.336 351.602V350.534C159.336 349.46 160.207 348.589 161.281 348.589H222.406C223.48 348.589 224.351 349.46 224.351 350.534V351.602C224.351 352.676 223.48 353.547 222.406 353.547Z" fill="#ACBFC3"/>
<path d="M312.156 353.547H251.029C249.956 353.547 249.086 352.676 249.086 351.602V350.534C249.086 349.46 249.956 348.589 251.029 348.589H312.156C313.23 348.589 314.101 349.46 314.101 350.534V351.602C314.101 352.676 313.23 353.547 312.156 353.547Z" fill="#ACBFC3"/>
<path d="M422.084 353.547H338.757C337.683 353.547 336.812 352.676 336.812 351.602V350.534C336.812 349.46 337.683 348.589 338.757 348.589H422.084C423.157 348.589 424.028 349.46 424.028 350.534V351.602C424.028 352.676 423.157 353.547 422.084 353.547Z" fill="#ACBFC3"/>
<path d="M127.857 75.9125C127.857 75.9125 121.4 71.5195 111.959 74.903C102.516 78.2864 100.395 91.0027 102.722 101.323C105.047 111.643 92.0469 146.878 92.0469 146.878C92.0469 146.878 98.8034 156.38 122.419 152.743C122.419 152.743 140.027 120.743 138.719 97.7697C137.413 74.7965 127.857 75.9125 127.857 75.9125Z" fill="#1B3540"/>
<path d="M135.312 115.607C144.187 112.769 149.618 120.16 154.704 133.912C159.788 147.666 161.498 149.044 161.498 149.044L181.126 161.655L179.495 169.006C179.495 169.006 160.815 161.691 156.299 157.039C151.783 152.387 138.79 128.822 138.79 128.822L135.312 115.607Z" fill="#EF5640"/>
<path d="M92.0538 204.461C92.0538 204.461 88.2037 223.962 88.8381 253.316C88.8381 253.316 73.6649 275.691 86.1865 339.531H92.7554C92.7554 339.531 98.1212 285.216 102.227 270.497C106.333 255.78 121.493 251.264 122.314 206.514L92.0538 204.461Z" fill="#F57559"/>
<path d="M62.0347 261.801C58.2178 249.222 48.4081 228.155 23.2422 199.598C23.2422 199.598 21.7412 198.825 19.7123 200.064C17.5703 201.373 17.5703 202.912 17.5703 202.912C17.5703 202.912 30.1894 230.412 38.2364 250.561C40.9456 257.345 47.4993 261.801 54.8032 261.801H62.0347Z" fill="#F57559"/>
<path d="M107.851 286.125C107.851 286.125 107.936 295.51 101.778 295.67C93.0829 295.904 92.7626 286.432 82.9095 286.741C73.0564 287.048 52.7343 289.512 46.2681 274.116C42.9303 266.159 47.4997 255.949 36.7231 248.251C25.9461 240.553 31.1804 231.932 36.7231 227.314C42.2654 222.708 34.3337 217.657 40.1101 215.305C41.4893 214.75 42.8439 214.812 44.1006 215.231C44.8394 215.489 45.5293 215.846 46.194 216.29C49.2487 218.322 51.3919 221.857 51.3919 221.857C67.7112 177.161 96.7651 171.261 96.7651 171.261L125.5 181.176C126.189 250.715 107.851 286.125 107.851 286.125Z" fill="#203E50"/>
<path d="M135.316 115.606C135.316 115.606 128.612 117.868 119.076 116.42C109.541 114.972 106.441 108.986 99.7381 112.84C89.6758 118.624 94.3844 138.536 96.9104 148.89C97.8534 152.749 99.047 162.892 96.774 171.261C96.774 171.261 110.173 181.686 125.508 181.169L133.875 162.971C133.875 162.971 152.07 141.201 135.316 115.606Z" fill="#D2DADC"/>
<path d="M118.291 98.9055C118.291 98.9055 119.406 108.326 115.922 116.894C115.922 116.894 120.896 124.239 125.644 119.406C125.644 119.406 126.079 110.773 131.411 101.007C134.984 94.4659 118.291 98.9055 118.291 98.9055Z" fill="#EF5640"/>
<path d="M110.666 99.2267C110.666 99.2267 106.47 96.572 106.944 100.668C107.493 105.413 112.121 106.339 112.614 104.679C113.107 103.021 110.666 99.2267 110.666 99.2267Z" fill="#F57559"/>
<path d="M134.744 94.0886C134.744 94.0886 137.409 89.8975 138.727 93.8046C140.254 98.3318 136.462 101.142 135.308 99.8516C134.155 98.5614 134.744 94.0886 134.744 94.0886Z" fill="#F57559"/>
<path d="M126.073 113.412C118.46 115.116 113.051 111.107 109.713 96.195C107.991 88.5029 110.848 82.9085 119.373 81.0005C127.899 79.0913 132.546 83.005 134.268 90.6971C137.856 106.719 133.936 111.651 126.073 113.412Z" fill="#F57559"/>
<path d="M132.935 96.5781C133.239 97.3124 132.741 98.2177 131.822 98.5993C130.903 98.9798 129.91 98.6936 129.605 97.9581C129.301 97.2226 129.799 96.3174 130.719 95.9369C131.637 95.5553 132.63 95.8426 132.935 96.5781Z" fill="#DC4B44"/>
<path d="M117.372 100.501C117.495 101.287 116.797 102.049 115.814 102.203C114.831 102.357 113.934 101.844 113.811 101.058C113.689 100.271 114.385 99.5089 115.368 99.3558C116.352 99.2016 117.249 99.7141 117.372 100.501Z" fill="#DC4B44"/>
<path d="M127.634 89.6309C127.56 89.6309 127.485 89.6098 127.419 89.5654C126.117 88.6968 124.273 89.1594 124.253 89.1627C124.041 89.2182 123.832 89.0906 123.778 88.8821C123.725 88.6735 123.85 88.4616 124.059 88.4073C124.148 88.3851 126.263 87.8559 127.851 88.9175C128.03 89.0362 128.079 89.2781 127.959 89.4578C127.884 89.5698 127.76 89.6309 127.634 89.6309Z" fill="#1B3540"/>
<path d="M113.311 92.8398C113.244 92.8398 113.174 92.8221 113.11 92.7833C112.926 92.6734 112.866 92.4338 112.978 92.2497C113.962 90.6123 116.101 90.1885 116.192 90.1708C116.4 90.1375 116.606 90.2684 116.647 90.4803C116.687 90.6911 116.549 90.8952 116.337 90.9362C116.32 90.9407 114.448 91.3167 113.645 92.6513C113.573 92.7722 113.443 92.8398 113.311 92.8398Z" fill="#1B3540"/>
<path d="M127.977 93.8072C128.188 94.7523 127.934 95.6143 127.409 95.7308C126.883 95.8483 126.287 95.1783 126.075 94.2332C125.863 93.288 126.117 92.426 126.643 92.3084C127.167 92.1909 127.765 92.862 127.977 93.8072Z" fill="#22434D"/>
<path d="M117.399 96.0845C117.61 97.0297 117.355 97.8905 116.831 98.0081C116.306 98.1257 115.708 97.4556 115.496 96.5094C115.285 95.5642 115.539 94.7034 116.064 94.5858C116.59 94.4682 117.187 95.1382 117.399 96.0845Z" fill="#22434D"/>
<path d="M120.812 105.036C120.812 105.036 125.701 104.638 127.856 102.818C127.856 102.818 127.263 106.638 124.603 106.903C121.943 107.168 120.812 105.036 120.812 105.036Z" fill="#22434D"/>
<path d="M125.304 93.9102C125.304 93.9102 125.476 91.4275 126.428 91.3886C127.38 91.352 128.52 93.1902 128.52 93.1902L129.711 92.1718L128.399 92.6511C128.399 92.6511 127.23 90.7286 126.325 90.9272C125.037 91.2101 125.304 93.9102 125.304 93.9102Z" fill="#22434D"/>
<path d="M117.977 95.8504C117.977 95.8504 116.762 93.6772 115.886 94.0488C115.008 94.4204 114.762 96.5703 114.762 96.5703L113.25 96.1565L114.641 96.0312C114.641 96.0312 114.878 93.7937 115.783 93.5873C117.068 93.2934 117.977 95.8504 117.977 95.8504Z" fill="#22434D"/>
<path d="M123.278 100.625L122.886 99.8818C123.52 99.5478 123.573 99.0975 123.507 98.7791C123.414 98.3287 123.047 97.9715 122.782 97.9504C122.63 97.9426 122.499 98.0724 122.397 98.3431L121.609 98.0502C121.947 97.1428 122.586 97.094 122.846 97.1129C123.515 97.1628 124.166 97.8195 124.331 98.6071C124.503 99.4325 124.109 100.187 123.278 100.625Z" fill="#DC4B44"/>
<path d="M111.262 101.912C111.262 101.912 108.914 93.2748 110.308 87.1669C110.308 87.1669 116.929 77.9461 129.71 82.5043C129.71 82.5043 133.5 88.6079 135.378 97.1497C135.378 97.1497 135.855 94.0813 134.584 87.2478C133.312 80.4143 127.249 76.1689 118.936 77.5367C110.623 78.9034 101.726 87.1746 111.262 101.912Z" fill="#1B3540"/>
<path d="M124.664 80.5882C124.664 80.5882 125.171 82.8424 122.978 88.6475C122.978 88.6475 121.4 86.9991 119.553 88.6475C117.706 90.296 113.955 89.7458 112.674 90.6366C111.394 91.5273 111.394 93.5652 111.394 93.5652C111.394 93.5652 110.285 91.0282 111.394 87.9864C111.394 87.9864 108.902 91.1546 109.232 95.0684C109.232 95.0684 105.852 94.5214 106.005 88.9448C106.159 83.3682 114.087 74.346 122.978 74.9317C131.87 75.5164 133.987 89.596 133.987 89.596C133.987 89.596 133.176 88.9581 131.907 89.2421C131.907 89.2421 131.711 86.2603 129.712 82.504C129.712 82.504 130.633 85.2152 129.712 88.1406C129.712 88.1406 127.234 86.8415 125.282 87.2476C125.282 87.2476 126.488 84.8891 124.664 80.5882Z" fill="#1B3540"/>
<path d="M97.4776 114.62C101.806 111.208 105.175 115.548 106.002 121.55C106.827 127.552 99.0018 162.962 92.9665 161.656C90.6373 161.153 89.6875 151.877 89.6875 151.877C89.6875 151.877 92.0478 141.921 93.5749 126.936C94.2769 120.05 95.2211 116.399 97.4776 114.62Z" fill="#F57559"/>
<path d="M84.8876 156.652C79.0615 151.099 68.6151 132.678 65.9609 123.294L70.3831 121.515C70.3831 121.515 83.6977 140.562 89.767 145.366C95.8362 150.168 97.9705 155.517 95.2599 160.097C92.549 164.678 86.1135 157.82 84.8876 156.652Z" fill="#F57559"/>
<path d="M67.7819 111.007C67.4768 117.03 72.3865 118.458 70.2081 123.082C69.7584 124.037 69.0749 124.544 68.3634 124.796C67.0149 125.273 65.5155 124.822 64.5094 123.805C62.1759 121.447 58.5683 118.947 56.6478 117.851C54.4638 116.592 55.701 116.248 55.701 116.248C55.4896 116.148 55.2837 116.065 55.0779 115.982C53.5196 115.33 52.2742 115.083 53.4044 114.391C54.6749 113.6 59.1816 115.247 59.1816 115.247C53.3164 111.341 51.7243 112.292 52.7955 111.463C54.2567 110.327 59.8329 112.94 60.0001 113.019C56.9009 110.088 54.654 109.425 55.8834 108.983C57.1293 108.535 63.2605 112.976 65.4982 114.642C66.0026 115.016 66.3111 115.257 66.3111 115.257C66.2345 110.332 67.7819 111.007 67.7819 111.007Z" fill="#F57559"/>
<path d="M65.4904 114.641C65.9948 115.014 66.3033 115.255 66.3033 115.255C66.3033 115.255 65.2538 117.02 66.6131 119.309C66.6131 119.309 64.1176 117.67 65.4904 114.641Z" fill="#EF5640"/>
<path d="M60.3483 118.1C59.8296 117.815 56.8703 116.148 55.6934 116.247C55.482 116.147 55.2761 116.064 55.0703 115.981C55.8612 114.938 59.7598 117.673 60.3483 118.1Z" fill="#EF5640"/>
<path d="M83.6025 207.485C83.6025 208.14 83.0721 208.67 82.4183 208.67C81.7647 208.67 81.2344 208.14 81.2344 207.485C81.2344 206.832 81.7647 206.302 82.4183 206.302C83.0721 206.302 83.6025 206.832 83.6025 207.485Z" fill="#6196B4"/>
<path d="M104.728 215.633C104.728 216.286 104.198 216.816 103.544 216.816C102.89 216.816 102.359 216.286 102.359 215.633C102.359 214.978 102.89 214.448 103.544 214.448C104.198 214.448 104.728 214.978 104.728 215.633Z" fill="#6196B4"/>
<path d="M122.727 220.003C122.727 220.657 122.196 221.188 121.543 221.188C120.889 221.188 120.359 220.657 120.359 220.003C120.359 219.349 120.889 218.819 121.543 218.819C122.196 218.819 122.727 219.349 122.727 220.003Z" fill="#6196B4"/>
<path d="M95.0718 192.027C95.0718 192.681 94.5413 193.211 93.8875 193.211C93.2335 193.211 92.7031 192.681 92.7031 192.027C92.7031 191.373 93.2335 190.842 93.8875 190.842C94.5413 190.842 95.0718 191.373 95.0718 192.027Z" fill="#6196B4"/>
<path d="M99.0559 203.275C99.0559 203.929 98.5257 204.459 97.8723 204.459C97.2178 204.459 96.6875 203.929 96.6875 203.275C96.6875 202.621 97.2178 202.091 97.8723 202.091C98.5257 202.091 99.0559 202.621 99.0559 203.275Z" fill="#6196B4"/>
<path d="M117.79 209.687C117.79 210.342 117.26 210.871 116.607 210.871C115.952 210.871 115.422 210.342 115.422 209.687C115.422 209.034 115.952 208.504 116.607 208.504C117.26 208.504 117.79 209.034 117.79 209.687Z" fill="#6196B4"/>
<path d="M120.353 190.281C120.353 190.935 119.823 191.465 119.168 191.465C118.515 191.465 117.984 190.935 117.984 190.281C117.984 189.627 118.515 189.096 119.168 189.096C119.823 189.096 120.353 189.627 120.353 190.281Z" fill="#6196B4"/>
<path d="M108.086 186.244C108.086 186.897 107.557 187.428 106.902 187.428C106.249 187.428 105.719 186.897 105.719 186.244C105.719 185.59 106.249 185.059 106.902 185.059C107.557 185.059 108.086 185.59 108.086 186.244Z" fill="#6196B4"/>
<path d="M73.1338 230.582C73.1338 231.235 72.6039 231.766 71.95 231.766C71.2961 231.766 70.7656 231.235 70.7656 230.582C70.7656 229.927 71.2961 229.397 71.95 229.397C72.6039 229.397 73.1338 229.927 73.1338 230.582Z" fill="#6196B4"/>
<path d="M56.2587 225.547C56.2587 226.2 55.7288 226.73 55.075 226.73C54.421 226.73 53.8906 226.2 53.8906 225.547C53.8906 224.892 54.421 224.362 55.075 224.362C55.7288 224.362 56.2587 224.892 56.2587 225.547Z" fill="#6196B4"/>
<path d="M46.1952 216.289C45.986 216.61 45.6168 216.818 45.1977 216.818C44.5451 216.818 44.0156 216.289 44.0156 215.637C44.0156 215.488 44.0404 215.353 44.1018 215.23C44.8406 215.488 45.5305 215.845 46.1952 216.289Z" fill="#6196B4"/>
<path d="M79.1811 246.023C79.1811 246.677 78.6508 247.207 77.9968 247.207C77.343 247.207 76.8125 246.677 76.8125 246.023C76.8125 245.369 77.343 244.839 77.9968 244.839C78.6508 244.839 79.1811 245.369 79.1811 246.023Z" fill="#6196B4"/>
<path d="M48.8916 262.803C48.8916 263.456 48.3616 263.986 47.7078 263.986C47.0538 263.986 46.5234 263.456 46.5234 262.803C46.5234 262.148 47.0538 261.619 47.7078 261.619C48.3616 261.619 48.8916 262.148 48.8916 262.803Z" fill="#6196B4"/>
<path d="M61.2665 252.63C61.2665 253.284 60.7366 253.814 60.0826 253.814C59.4288 253.814 58.8984 253.284 58.8984 252.63C58.8984 251.976 59.4288 251.446 60.0826 251.446C60.7366 251.446 61.2665 251.976 61.2665 252.63Z" fill="#6196B4"/>
<path d="M42.8368 243.63C42.8368 244.284 42.3069 244.814 41.6531 244.814C40.9987 244.814 40.4688 244.284 40.4688 243.63C40.4688 242.976 40.9987 242.446 41.6531 242.446C42.3069 242.446 42.8368 242.976 42.8368 243.63Z" fill="#6196B4"/>
<path d="M57.712 279.069C57.712 279.724 57.1819 280.254 56.5281 280.254C55.8737 280.254 55.3438 279.724 55.3438 279.069C55.3438 278.416 55.8737 277.885 56.5281 277.885C57.1819 277.885 57.712 278.416 57.712 279.069Z" fill="#6196B4"/>
<path d="M68.9854 216.818C68.9854 217.472 68.4555 218.002 67.8015 218.002C67.1477 218.002 66.6172 217.472 66.6172 216.818C66.6172 216.164 67.1477 215.635 67.8015 215.635C68.4555 215.635 68.9854 216.164 68.9854 216.818Z" fill="#6196B4"/>
<path d="M80.3604 196.878C80.3604 197.532 79.8304 198.062 79.1765 198.062C78.5222 198.062 77.9922 197.532 77.9922 196.878C77.9922 196.224 78.5222 195.694 79.1765 195.694C79.8304 195.694 80.3604 196.224 80.3604 196.878Z" fill="#6196B4"/>
<path d="M93.2354 180.283C93.2354 180.937 92.7049 181.467 92.0511 181.467C91.3971 181.467 90.8672 180.937 90.8672 180.283C90.8672 179.629 91.3971 179.098 92.0511 179.098C92.7049 179.098 93.2354 179.629 93.2354 180.283Z" fill="#6196B4"/>
<path d="M67.1495 204.461C67.1495 205.115 66.6195 205.645 65.9656 205.645C65.3117 205.645 64.7812 205.115 64.7812 204.461C64.7812 203.807 65.3117 203.277 65.9656 203.277C66.6195 203.277 67.1495 203.807 67.1495 204.461Z" fill="#6196B4"/>
<path d="M81.5401 185.057C81.5401 185.712 81.0096 186.242 80.3558 186.242C79.7018 186.242 79.1719 185.712 79.1719 185.057C79.1719 184.404 79.7018 183.874 80.3558 183.874C81.0096 183.874 81.5401 184.404 81.5401 185.057Z" fill="#6196B4"/>
<path d="M58.899 238.37C58.899 239.024 58.369 239.555 57.7151 239.555C57.0612 239.555 56.5312 239.024 56.5312 238.37C56.5312 237.717 57.0612 237.186 57.7151 237.186C58.369 237.186 58.899 237.717 58.899 238.37Z" fill="#6196B4"/>
<path d="M44.0239 227.915C44.0239 228.569 43.494 229.1 42.84 229.1C42.1862 229.1 41.6562 228.569 41.6562 227.915C41.6562 227.261 42.1862 226.731 42.84 226.731C43.494 226.731 44.0239 227.261 44.0239 227.915Z" fill="#6196B4"/>
<path d="M87.1577 224.362C87.1577 225.017 86.6273 225.547 85.9734 225.547C85.3194 225.547 84.7891 225.017 84.7891 224.362C84.7891 223.709 85.3194 223.178 85.9734 223.178C86.6273 223.178 87.1577 223.709 87.1577 224.362Z" fill="#6196B4"/>
<path d="M111.642 230.582C111.642 231.235 111.112 231.766 110.457 231.766C109.804 231.766 109.273 231.235 109.273 230.582C109.273 229.927 109.804 229.397 110.457 229.397C111.112 229.397 111.642 229.927 111.642 230.582Z" fill="#6196B4"/>
<path d="M110.454 196.878C110.454 197.532 109.924 198.062 109.271 198.062C108.616 198.062 108.086 197.532 108.086 196.878C108.086 196.224 108.616 195.694 109.271 195.694C109.924 195.694 110.454 196.224 110.454 196.878Z" fill="#6196B4"/>
<path d="M124.689 199.36C124.689 200.015 124.158 200.545 123.505 200.545C122.851 200.545 122.32 200.015 122.32 199.36C122.32 198.707 122.851 198.177 123.505 198.177C124.158 198.177 124.689 198.707 124.689 199.36Z" fill="#6196B4"/>
<path d="M96.2584 239.557C96.2584 240.21 95.7281 240.74 95.075 240.74C94.4206 240.74 93.8906 240.21 93.8906 239.557C93.8906 238.902 94.4206 238.372 95.075 238.372C95.7281 238.372 96.2584 238.902 96.2584 239.557Z" fill="#6196B4"/>
<path d="M85.9776 260.617C85.9776 261.271 85.4477 261.801 84.7933 261.801C84.1394 261.801 83.6094 261.271 83.6094 260.617C83.6094 259.963 84.1394 259.432 84.7933 259.432C85.4477 259.432 85.9776 259.963 85.9776 260.617Z" fill="#6196B4"/>
<path d="M67.8057 263.985C67.8057 264.64 67.2758 265.17 66.6214 265.17C65.9675 265.17 65.4375 264.64 65.4375 263.985C65.4375 263.332 65.9675 262.801 66.6214 262.801C67.2758 262.801 67.8057 263.332 67.8057 263.985Z" fill="#6196B4"/>
<path d="M117.79 246.023C117.79 246.677 117.26 247.207 116.607 247.207C115.952 247.207 115.422 246.677 115.422 246.023C115.422 245.369 115.952 244.839 116.607 244.839C117.26 244.839 117.79 245.369 117.79 246.023Z" fill="#6196B4"/>
<path d="M101.431 255C101.431 255.653 100.901 256.184 100.247 256.184C99.5928 256.184 99.0625 255.653 99.0625 255C99.0625 254.345 99.5928 253.816 100.247 253.816C100.901 253.816 101.431 254.345 101.431 255Z" fill="#6196B4"/>
<path d="M76.8052 281.438C76.8052 282.093 76.2752 282.623 75.6214 282.623C74.9674 282.623 74.4375 282.093 74.4375 281.438C74.4375 280.785 74.9674 280.255 75.6214 280.255C76.2752 280.255 76.8052 280.785 76.8052 281.438Z" fill="#6196B4"/>
<path d="M95.0718 275.272C95.0718 275.927 94.5413 276.457 93.8875 276.457C93.2335 276.457 92.7031 275.927 92.7031 275.272C92.7031 274.619 93.2335 274.089 93.8875 274.089C94.5413 274.089 95.0718 274.619 95.0718 275.272Z" fill="#6196B4"/>
<path d="M112.665 268.298C112.665 268.952 112.135 269.482 111.482 269.482C110.827 269.482 110.297 268.952 110.297 268.298C110.297 267.644 110.827 267.114 111.482 267.114C112.135 267.114 112.665 267.644 112.665 268.298Z" fill="#6196B4"/>
<path d="M104.728 288.667C104.728 289.321 104.198 289.852 103.544 289.852C102.89 289.852 102.359 289.321 102.359 288.667C102.359 288.013 102.89 287.483 103.544 287.483C104.198 287.483 104.728 288.013 104.728 288.667Z" fill="#6196B4"/>
<path d="M103.438 351.02H83.9903C82.7216 347.399 85.0619 343.765 84.6677 340.575C83.9903 335.18 87.1312 338.161 87.1312 338.161C87.6854 332.36 95.8391 331.263 95.7526 333.85C95.6172 337.656 96.356 340.008 97.4399 341.585C99.6319 344.75 103.228 344.726 103.844 346.991C103.906 347.213 103.955 347.435 103.992 347.633C104.595 350.465 103.438 351.02 103.438 351.02Z" fill="#203E50"/>
<path d="M103.982 347.633C99.9554 348.569 90.6686 347.349 90.2994 345.009C89.942 342.743 94.9427 341.683 97.4306 341.585C99.6226 344.751 103.219 344.726 103.835 346.991C103.897 347.213 103.946 347.435 103.982 347.633Z" fill="#284D5E"/>
<path d="M23.4878 200.377C21.4187 198.492 18.0564 201.608 18.0564 201.608C18.0564 201.608 19.8668 204.293 18.6968 205.377C17.5269 206.46 16.1719 203.986 13.8687 205.069C13.6841 205.155 13.4869 205.266 13.3023 205.389C11.504 206.46 9.63201 208.715 8.11699 210.426C7.80937 210.771 7.5134 211.092 7.24261 211.375C5.48155 213.223 0.936717 214.307 0.0865242 209.38C-0.763225 204.454 4.77912 198.676 10.8635 193.368C16.948 188.06 20.877 191.213 20.877 191.213C20.877 191.213 22.2562 193.442 22.2562 194.833C22.2562 196.214 23.4878 196.904 24.1777 198.221C24.8675 199.526 23.4878 200.377 23.4878 200.377Z" fill="#203E50"/>
<path d="M13.3077 205.39C11.5093 206.462 9.63734 208.716 8.12233 210.428C5.84387 210.97 3.79948 210.809 3.47921 208.667C2.70312 203.493 13.0242 196.917 12.1991 200.55C11.7806 202.373 12.4947 204.11 13.3077 205.39Z" fill="#284D5E"/>
<path d="M373.43 342.609C372.471 342.106 371.587 340.999 370.793 339.599C370.793 339.598 370.109 335.458 370.793 331.108C371.477 326.757 369.583 323.205 363.425 321.87C357.438 320.574 353.885 323.458 355.268 335.494C355.268 335.495 355.269 335.496 355.269 335.499C354.358 340.498 354.169 346.208 356.246 351.02H374.675C374.675 351.02 377.582 344.789 373.43 342.609Z" fill="#D2DADC"/>
<path d="M389.594 277.736C389.594 277.736 389.594 289.745 382.82 302.06C375.922 314.603 367.394 331.816 367.394 331.816C367.394 331.816 361.712 337.359 358.102 328.177C358.102 328.177 360.651 296.211 366.5 284.51C372.351 272.81 389.594 277.736 389.594 277.736Z" fill="#F57559"/>
<path d="M477.97 238.632C477.97 238.632 488.946 284.792 495.928 296.968C495.928 296.968 494.322 302.062 486.762 303.602C486.762 303.602 462.882 268.5 461.343 253.72C459.803 238.941 477.97 238.632 477.97 238.632Z" fill="#F57559"/>
<path d="M483.277 249.483C480.357 256.516 457.807 256.898 457.807 256.898L456.082 254.361L455.626 253.697L452.104 248.498C452.104 248.498 414.736 211.845 407.456 214.924H407.444C407.235 215.022 407.026 215.133 406.828 215.281C401.829 218.852 401.36 238.423 395.448 271.272C394.882 274.388 393.625 278.021 392.677 280.534C392.566 280.804 392.468 281.063 392.369 281.309C391.827 282.701 391.445 283.588 391.445 283.588C368.635 292.825 361.109 274.572 361.109 274.572C361.109 274.572 361.381 274.043 361.775 273.193C361.862 273.008 361.96 272.799 362.058 272.577C363.253 269.942 365.162 265.372 365.137 262.958C365.113 260.31 365.089 257.76 365.076 255.309C365.076 255.088 365.076 254.878 365.063 254.669C365.026 246.774 365.039 239.914 365.089 233.953V233.325C365.113 230.726 365.15 228.299 365.2 226.033V225.393C365.396 215.01 365.729 208.076 366.086 203.457C366.098 203.248 366.122 203.027 366.135 202.829C366.764 195.057 367.428 194.294 367.428 194.294L362.859 162.529H412.716C412.716 162.529 420.204 170.031 429.921 179.933C430.131 180.13 430.328 180.327 430.525 180.536C434.048 184.12 437.853 188.013 441.671 191.967C441.832 192.126 441.98 192.274 442.115 192.421C443.617 193.973 445.12 195.525 446.61 197.065C446.795 197.249 446.967 197.447 447.153 197.632C452.153 202.817 457.006 207.928 461.157 212.399C461.304 212.547 461.44 212.694 461.575 212.842C467.253 218.989 471.576 223.902 473.067 226.193C477.02 232.241 480.099 240.111 481.798 244.976C481.798 244.976 481.798 244.976 481.798 244.988C481.885 245.21 481.959 245.408 482.032 245.616C482.833 247.981 483.277 249.483 483.277 249.483Z" fill="#872B39"/>
<path d="M374.884 199.045C372.852 201.447 369.896 202.926 366.078 203.455C366.09 203.247 366.115 203.025 366.127 202.827C369.723 202.31 372.507 200.906 374.416 198.639C377.84 194.599 377.286 189.144 377.274 189.095L377.889 189.02C377.914 189.255 378.48 194.797 374.884 199.045Z" fill="#61242F"/>
<path d="M430.517 180.535C430.321 180.547 430.136 180.561 429.939 180.561C424.397 180.561 418.608 174.5 418.312 174.193L418.756 173.761C418.829 173.848 424.594 179.883 429.914 179.932C430.124 180.129 430.321 180.326 430.517 180.535Z" fill="#61242F"/>
<path d="M392.675 280.532C392.564 280.803 392.466 281.061 392.368 281.308C388.673 282.663 385.286 283.217 382.194 283.217C372.341 283.217 365.517 277.515 361.773 273.192C361.86 273.006 361.959 272.798 362.056 272.576C366.848 278.193 377.083 286.482 392.675 280.532Z" fill="#61242F"/>
<path d="M406.063 203.481C406.889 207.017 407.418 210.872 407.442 214.924C407.234 215.022 407.024 215.133 406.827 215.281C406.802 196.683 396.037 182.174 395.914 182.015L396.407 181.645C396.505 181.768 402.885 190.389 405.903 202.841C407.159 202.016 408.009 200.833 408.366 199.307C409.918 192.778 402.861 182.112 402.8 182.002L403.304 181.657C403.6 182.112 410.571 192.655 408.97 199.442C408.552 201.216 407.565 202.558 406.063 203.481Z" fill="#61242F"/>
<path d="M461.568 212.84C459.733 214.836 458.008 216.535 457.848 216.683L457.515 217.016L457.356 216.572C454.942 210.254 439.423 196.558 439.262 196.423L439.078 196.25L441.664 191.965C441.825 192.124 441.972 192.272 442.108 192.419L439.94 196.016C442.957 197.063 445.101 197.247 446.603 197.063C446.788 197.247 446.96 197.445 447.145 197.63C446.64 197.715 446.098 197.765 445.531 197.765C444.14 197.765 442.551 197.481 440.765 196.94C444.288 200.117 455.237 210.266 457.749 215.92C458.722 214.959 459.955 213.69 461.149 212.397C461.297 212.545 461.432 212.693 461.568 212.84Z" fill="#61242F"/>
<path d="M376.419 255.199L376.172 255.249C375.938 255.31 373.143 255.889 369.928 255.889C368.314 255.889 366.614 255.741 365.076 255.31C365.076 255.088 365.076 254.878 365.062 254.67C369.127 255.839 374.558 254.94 375.791 254.706L374.756 229.076C374.177 230.479 373.032 232.401 370.889 233.46C369.866 233.977 368.721 234.223 367.464 234.223C366.713 234.223 365.926 234.138 365.088 233.953V233.325C367.218 233.817 369.066 233.682 370.606 232.905C373.216 231.613 374.251 228.842 374.572 227.745C372.514 228.053 368.364 227.006 365.199 226.033V225.393C368.61 226.427 373.228 227.622 374.891 227.044L375.286 226.907L376.419 255.199Z" fill="#61242F"/>
<path d="M482.032 245.616C478.448 249.152 471.107 254.559 459.813 254.559C458.618 254.559 457.374 254.496 456.081 254.361L455.625 253.697C469.359 255.273 477.968 248.831 481.798 244.988C481.884 245.21 481.958 245.408 482.032 245.616Z" fill="#61242F"/>
<path d="M421.919 27.4827C421.919 27.4827 420.548 24.3278 414.761 24.3266C410.3 24.3255 408.593 26.7894 408.593 26.7894C405.924 34.5902 403.056 64.4568 402.029 65.5206C401.509 66.0587 368.422 88.3429 368.422 88.3429C386.378 88.6802 397.581 110.812 397.581 110.812C398.161 103.54 418.44 74.7192 418.657 72.1489C419.067 67.3011 427.646 45.6492 421.919 27.4827Z" fill="#CF2548"/>
<path d="M364.488 183.647C364.488 183.647 364.321 189.878 366.337 190.289C368.353 190.7 384.774 195.553 403.659 186.968C422.545 178.383 425.829 172.02 420.287 167.299C414.744 162.577 364.488 183.647 364.488 183.647Z" fill="#CF2548"/>
<path d="M356.921 92.656C356.921 92.656 339.738 90.6203 329.885 94.8846C329.885 94.8846 327.138 107.077 340.674 134.366C354.21 161.654 351.07 178.841 366.337 185.311C379.871 191.046 419.774 173.978 421.027 168.317C424.182 154.066 399.781 129.057 398.241 114.564C396.702 100.072 382.538 78.2834 356.921 92.656Z" fill="#EF294D"/>
<path d="M329.882 94.8839C317.873 99.1482 304.364 112.631 304.344 119.129C304.325 125.628 315.611 128.133 315.611 128.133L334.116 119.129C334.116 119.129 339.41 115.433 336.04 104.663C332.671 93.891 329.882 94.8839 329.882 94.8839Z" fill="#CF2548"/>
<path d="M379.225 106.9C375.638 106.9 371.187 105.608 368.423 103.637C366.899 102.551 365.989 101.326 365.794 100.094C365.115 95.8281 369.268 93.6605 369.446 93.5707L370.006 94.6667C369.86 94.741 366.474 96.527 367.011 99.9005C367.153 100.799 367.888 101.743 369.137 102.634C372.233 104.84 377.588 106.136 381.075 105.52C382.646 105.244 383.674 104.678 384.13 103.842C384.688 102.818 384.211 101.66 384.206 101.648L385.338 101.162C385.369 101.231 386.057 102.861 385.219 104.415C384.578 105.607 383.256 106.387 381.289 106.733C380.651 106.846 379.955 106.9 379.225 106.9Z" fill="#D2DADC"/>
<path d="M363.992 119.895C361.335 119.895 356.924 118.787 356.305 114.424C355.989 112.205 356.194 110.353 356.371 108.72C356.635 106.315 356.843 104.416 355.441 102.139C353.127 98.3813 349.977 98.1283 349.844 98.1195L349.918 96.8903C350.076 96.8992 353.824 97.1643 356.49 101.493C358.113 104.13 357.861 106.425 357.596 108.854C357.416 110.492 357.231 112.185 357.525 114.251C358.193 118.958 364.192 118.663 364.446 118.65L364.519 119.879C364.353 119.889 364.176 119.895 363.992 119.895Z" fill="#D2DADC"/>
<path d="M367.732 97.7916C367.732 97.7916 376.815 91.6048 374.659 84.9078C372.504 78.2107 343.252 78.6733 335.708 86.6783C328.165 94.6843 352.028 99.998 352.028 99.998C353.875 96.2751 365.678 95.8647 367.732 97.7916Z" fill="#CF2548"/>
<path d="M351.402 96.7424C347.092 95.2781 344.538 92.1676 345.462 88.5755C346.385 84.9835 364.914 84.8881 368.428 87.7579C371.942 90.6278 366.992 102.035 351.402 96.7424Z" fill="#9F2240"/>
<path d="M349.352 86.646C349.352 86.646 353.164 93.1611 351.403 96.7432C351.403 96.7432 364.485 101.259 364.485 93.9399C364.485 93.9399 362.019 88.4531 362.949 84.9066L349.352 86.646Z" fill="#EF5640"/>
<path d="M344.988 80.959C344.988 80.959 338.56 70.6644 339.156 60.8324C339.455 55.9158 341.983 53.99 341.983 53.99C341.983 53.99 339.942 51.1523 342.129 46.8159C342.129 46.8159 345.157 50.3181 355.782 49.2132C366.028 48.1482 367.049 55.4521 367.049 55.4521C374.372 56.5403 369.432 78.6948 364.321 80.959H344.988Z" fill="#F9AD63"/>
<path d="M342.262 71.4516C342.262 71.4516 338.568 67.7653 338.113 72.0751C337.586 77.0682 342.12 79.0794 343.007 77.4908C343.892 75.9034 342.262 71.4516 342.262 71.4516Z" fill="#F57559"/>
<path d="M368.126 71.7139C368.126 71.7139 371.82 68.0265 372.275 72.3363C372.802 77.3294 368.267 79.3406 367.381 77.7531C366.495 76.1646 368.126 71.7139 368.126 71.7139Z" fill="#F57559"/>
<path d="M354.807 89.5371C346.61 89.5371 341.984 84.1824 341.984 68.1248C341.984 59.8414 346.199 54.7606 355.38 54.7606C364.562 54.7606 368.429 59.8403 368.429 68.1248C368.429 85.3793 363.276 89.5371 354.807 89.5371Z" fill="#F57559"/>
<path d="M365.711 73.8526C365.854 74.6757 365.135 75.49 364.105 75.6697C363.075 75.8494 362.123 75.3269 361.979 74.5027C361.836 73.6795 362.555 72.8653 363.584 72.6856C364.615 72.5059 365.567 73.0284 365.711 73.8526Z" fill="#DC4B44"/>
<path d="M348.852 74.3004C348.798 75.1357 347.908 75.7569 346.864 75.6882C345.821 75.6205 345.019 74.8883 345.073 74.0541C345.128 73.2199 346.018 72.5976 347.062 72.6663C348.106 72.734 348.907 73.4662 348.852 74.3004Z" fill="#DC4B44"/>
<path d="M362.105 65.2412C361.998 65.2578 361.886 65.2323 361.794 65.1613C360.488 64.1585 358.53 64.5135 358.5 64.5179C358.283 64.5534 358.064 64.4136 358.023 64.1907C357.98 63.9688 358.127 63.7547 358.35 63.7125C358.436 63.6937 360.7 63.2876 362.292 64.5124C362.472 64.6499 362.505 64.9073 362.367 65.087C362.301 65.1735 362.205 65.2257 362.105 65.2412Z" fill="#F9AD63"/>
<path d="M346.414 65.2996C346.313 65.2863 346.216 65.2375 346.147 65.1532C346.004 64.9779 346.03 64.7194 346.204 64.5763C347.757 63.3039 350.03 63.6411 350.119 63.6556C350.342 63.6911 350.495 63.8996 350.46 64.1237C350.426 64.3467 350.208 64.4953 349.992 64.4654C349.978 64.4609 347.983 64.1758 346.724 65.2097C346.632 65.2841 346.52 65.3129 346.414 65.2996Z" fill="#F9AD63"/>
<path d="M361.259 69.8692C361.259 70.8875 360.801 71.7129 360.235 71.7129C359.669 71.7129 359.211 70.8875 359.211 69.8692C359.211 68.8508 359.669 68.0255 360.235 68.0255C360.8 68.0255 361.259 68.8508 361.259 69.8692Z" fill="#22434D"/>
<path d="M350.306 69.8692C350.306 70.8875 349.847 71.7129 349.282 71.7129C348.716 71.7129 348.258 70.8875 348.258 69.8692C348.258 68.8508 348.716 68.0255 349.282 68.0255C349.847 68.0255 350.306 68.8508 350.306 69.8692Z" fill="#22434D"/>
<path d="M344.493 56.5391C344.493 56.5391 353.228 59.7373 365.753 58.8376C365.753 58.8376 368.423 62.1668 368.099 73.9102C368.099 73.9102 375.432 52.7551 354.024 52.7551C332.616 52.7551 342.26 73.4409 342.26 73.4409C342.26 73.4409 340.511 60.5027 344.493 56.5391Z" fill="#F9AD63"/>
<path d="M355.324 75.3418L354.711 74.7239L356.332 73.1131C354.76 70.89 354.769 65.7461 354.77 65.5164L355.641 65.522C355.641 65.5774 355.632 71.1119 357.237 72.8513L357.522 73.1597L355.324 75.3418Z" fill="#DC4B44"/>
<path d="M349.883 78.0238C349.883 78.0238 357.95 78.3643 362.023 77.2872C362.023 77.2872 362.743 83.1533 356.491 83.4451C349.883 83.7524 349.883 78.0238 349.883 78.0238Z" fill="#22434D"/>
<path d="M384.363 100.204C385.903 99.9185 385.749 103.946 384.363 102.779C382.978 101.611 382.824 100.49 384.363 100.204Z" fill="#D2DADC"/>
<path d="M365.794 119.727C365.559 121.276 361.804 119.809 363.362 118.883C364.918 117.957 366.028 118.179 365.794 119.727Z" fill="#D2DADC"/>
<path d="M349.269 128.133C349.269 128.133 346.824 134.403 346.964 137.944C347.103 141.486 348.262 141.024 348.262 141.024C348.262 141.024 346.408 141.754 346.056 143.795C345.706 145.837 350.86 147.336 351.213 147.336C351.568 147.336 355.206 145.95 355.206 145.95L355.968 134.366L352.749 132.343L349.269 128.133Z" fill="#EF5640"/>
<path d="M351.211 127.322C351.211 127.322 355.662 130.093 357.385 131.786C359.109 133.48 358.125 146.566 357.385 147.182C356.646 147.798 350.971 149.067 349.883 148.356C348.794 147.644 350.307 143.794 350.307 143.794C350.307 143.794 353.157 143.179 352.746 144.257C352.335 145.334 352.746 146.258 352.746 146.258L353.917 145.797C353.917 145.797 353.342 142.871 353.917 140.716C354.49 138.561 349.904 136.288 349.348 132.343C348.794 128.399 351.211 127.322 351.211 127.322Z" fill="#F57559"/>
<path d="M305.082 120.946C303.656 114.792 309.763 112.615 318.26 113.665C328.113 114.881 348.348 117.458 352.747 128.132C352.747 128.132 354.183 132.342 350.465 134.365C340.071 140.018 307.758 132.503 305.082 120.946Z" fill="#CF2548"/>
<path d="M335.903 116.869C335.903 116.869 324.16 111.99 318.31 111.497C312.46 111.003 326.4 116.115 335.903 116.869Z" fill="#9F2240"/>
<path d="M423.932 11.148C423.044 12.1575 421.579 16.0868 421.579 16.0868C420.963 19.3871 420.606 21.2108 419.448 22.725C418.303 24.2404 418.906 26.9128 418.906 26.9128C418.906 26.9128 414.423 29.2157 410.654 26.3714C410.654 26.3714 411.048 23.7234 410.654 22.9713C409.879 21.4693 407.39 20.6683 406.541 17.6387C405.691 14.597 403.141 11.209 403.141 11.209C403.141 11.209 403.868 9.63269 405.198 10.5934C406.541 11.5663 407.39 13.9935 408.117 14.2397C408.265 14.2885 408.412 14.3252 408.561 14.3385C408.561 14.3385 408.573 14.3385 408.597 14.3507C409.152 14.4239 409.718 14.3008 410.063 13.968C410.087 13.9558 410.125 13.9314 410.149 13.8947C411.369 12.4781 411.651 8.31479 411.603 6.45555C411.528 3.86859 411.627 0.297634 413.203 0.901112C414.78 1.50348 413.339 2.94562 414.559 8.64759L415.149 8.72191C415.26 9.12793 416.344 5.2608 416.603 1.62773C416.788 -0.872707 418.426 0.0513554 418.783 0.838982C419.153 1.62772 418.598 4.11485 418.487 5.92529C418.402 7.12004 418.303 8.3647 418.241 9.10352L418.931 9.48515C421.419 5.14987 420.569 3.35163 422.023 3.26511C423.464 3.17969 422.946 6.83716 422.17 8.22937C421.837 8.83285 421.517 10.0886 421.258 11.32C423.809 8.3769 423.525 6.83715 424.695 7.02241C425.902 7.21876 424.818 10.1374 423.932 11.148Z" fill="#F57559"/>
<path d="M412.917 17.9336C412.055 15.5574 408.975 14.4736 408.594 14.3504C409.148 14.4237 409.714 14.3005 410.059 13.9677C413.077 15.3233 412.917 17.9336 412.917 17.9336Z" fill="#EF5640"/>
<path d="M359.424 332.954C359.424 332.954 357.72 329.477 359.24 327.982C360.759 326.488 362.548 329.259 365.143 328.643C367.739 328.028 368.34 326.183 369.015 328.696C369.689 331.209 368.867 339.112 359.424 332.954Z" fill="#D2DADC"/>
<path d="M369.195 332.799C369.195 332.799 362.224 335.269 358.609 332.799L359.528 335.817C359.528 335.817 367.105 336.62 368.15 334.71L369.195 332.799Z" fill="#ACBFC3"/>
<path d="M369.094 336.549C369.094 336.549 362.712 335.662 359.633 337.248V338.744C359.633 338.744 367.954 336.802 370.644 338.744L369.094 336.549Z" fill="#ACBFC3"/>
<path d="M359.328 341.852C359.328 341.852 360.566 338.835 364.449 338.619C368.331 338.403 370.952 340.54 370.952 340.54C370.952 340.54 364.794 338.003 359.328 341.852Z" fill="#ACBFC3"/>
<path d="M523.61 299.943C511.355 316.299 494.679 319.439 494.679 319.439C489.838 315.572 489.715 310.991 489.715 310.991C489.715 310.991 485.047 306.827 484.431 304.832C483.815 302.837 488.434 296.827 491.206 297.442C493.115 297.861 494.223 299.388 494.728 300.288C492.437 295.127 494.272 293.329 497.523 293.772C500.911 294.228 497.708 295.029 500.135 297.75C500.308 297.947 500.504 298.107 500.714 298.256C501.157 298.563 501.687 298.773 502.29 298.884C502.819 298.982 503.41 299.007 504.027 298.97C504.347 298.957 504.68 298.92 505.012 298.871C505.64 298.773 506.28 298.613 506.946 298.403C507.968 298.083 509.027 297.627 510.062 297.061C514.299 294.745 516.085 293.957 519.312 294.782C522.526 295.594 522.477 298.034 522.477 298.034L523.61 299.943Z" fill="#D2DADC"/>
<path d="M523.611 299.943C511.356 316.299 494.68 319.439 494.68 319.439C503.19 315.782 511.011 310.991 516.356 305.09C521.69 299.191 523.611 299.943 523.611 299.943Z" fill="#ACBFC3"/>
<path d="M500.713 298.255C501.157 298.563 501.686 298.772 502.29 298.883C499.05 299.535 498.816 302.43 498.816 302.43L497.438 301.987C497.733 298.514 500.479 298.267 500.713 298.255Z" fill="#ACBFC3"/>
<path d="M502.892 302.776L501.451 302.826C500.909 300.782 501.61 299.561 502.288 298.885C502.817 298.983 503.409 299.008 504.025 298.971C502.313 300.659 502.892 302.776 502.892 302.776Z" fill="#ACBFC3"/>
<path d="M506.452 301.988L505.023 302.172C504.469 300.719 504.63 299.635 505.011 298.872C505.639 298.773 506.279 298.613 506.945 298.403C505.762 300.164 506.452 301.988 506.452 301.988Z" fill="#ACBFC3"/>
<path d="M369.315 150.106C369.315 150.106 372.478 167.175 366.083 173.976C359.687 180.778 363.917 175.188 365.825 166.419C367.733 157.65 366.28 148.414 369.315 150.106Z" fill="#CF2548"/>
<path d="M398.828 142.489C398.828 142.489 408.91 145.802 414.184 155.113C414.184 155.113 407.141 139.953 398.828 142.489Z" fill="#CF2548"/>
<path d="M136.972 15.6799C138.316 15.701 142.211 17.2519 142.211 17.2519C145.071 19.0124 146.662 19.9709 148.562 20.1306C150.453 20.2981 151.23 23.5484 151.23 23.5484C151.23 23.5484 158.69 25.1803 159.112 20.4767C159.112 20.4767 154.941 14.574 154.649 13.7775C154.055 12.1944 155.133 9.81269 153.458 7.14919C151.774 4.4768 150.975 0.313459 150.975 0.313459C150.975 0.313459 149.319 -0.206816 149.138 1.4239C148.958 3.07237 150.185 5.33098 149.88 6.03541C149.818 6.1774 149.746 6.31275 149.656 6.42923C149.656 6.42923 149.647 6.43919 149.639 6.46582C149.322 6.92619 148.851 7.26343 148.372 7.2956C148.347 7.30558 148.304 7.31669 148.26 7.31003C146.392 7.26233 143.116 4.67758 141.771 3.39297C139.904 1.6014 137.19 -0.723757 136.579 0.850388C135.968 2.42342 138.003 2.32246 141.411 7.05488L141.07 7.543C141.296 7.89799 137.702 6.10417 134.835 3.85777C132.858 2.3158 132.443 4.14953 132.787 4.94382C133.125 5.74697 135.34 7.00607 136.757 8.13981C137.699 8.87752 138.688 9.63964 139.277 10.09L139.096 10.8577C134.213 9.79161 133.451 7.95456 132.411 8.97403C131.38 9.98353 134.438 12.0558 135.991 12.4152C136.661 12.5738 137.807 13.1806 138.894 13.8152C135 13.7286 134.05 12.4851 133.401 13.4768C132.737 14.503 135.628 15.6589 136.972 15.6799Z" fill="#F57559"/>
<path d="M149.402 12.0762C148.218 9.84087 149.483 6.83124 149.647 6.46627C149.329 6.92664 148.858 7.26387 148.38 7.29604C147.358 10.4421 149.402 12.0762 149.402 12.0762Z" fill="#EF5640"/>
<path d="M356.46 15.6799C355.116 15.701 351.22 17.2519 351.22 17.2519C348.36 19.0124 346.769 19.9709 344.87 20.1306C342.978 20.2981 342.202 23.5484 342.202 23.5484C342.202 23.5484 334.742 25.1803 334.32 20.4767C334.32 20.4767 338.491 14.574 338.783 13.7775C339.376 12.1944 338.299 9.81269 339.975 7.14919C341.659 4.4768 342.457 0.313459 342.457 0.313459C342.457 0.313459 344.114 -0.206816 344.294 1.4239C344.474 3.07237 343.247 5.33098 343.552 6.03541C343.614 6.1774 343.686 6.31275 343.776 6.42923C343.776 6.42923 343.785 6.43919 343.792 6.46582C344.109 6.92619 344.582 7.26343 345.059 7.2956C345.085 7.30558 345.127 7.31669 345.172 7.31003C347.04 7.26233 350.316 4.67758 351.661 3.39297C353.528 1.6014 356.242 -0.723757 356.853 0.850388C357.464 2.42342 355.429 2.32246 352.021 7.05488L352.363 7.543C352.136 7.89799 355.729 6.10417 358.596 3.85777C360.574 2.3158 360.989 4.14953 360.644 4.94382C360.308 5.74697 358.092 7.00607 356.676 8.13981C355.733 8.87752 354.744 9.63964 354.155 10.09L354.335 10.8577C359.218 9.79161 359.981 7.95456 361.021 8.97403C362.051 9.98353 358.993 12.0558 357.441 12.4152C356.771 12.5738 355.624 13.1806 354.538 13.8152C358.432 13.7286 359.382 12.4851 360.03 13.4768C360.695 14.503 357.804 15.6589 356.46 15.6799Z" fill="#F57559"/>
<path d="M344.043 12.0762C345.226 9.84087 343.962 6.83124 343.797 6.46627C344.114 6.92664 344.587 7.26387 345.064 7.29604C346.085 10.4421 344.043 12.0762 344.043 12.0762Z" fill="#EF5640"/>
<path d="M290.909 241.813L276.577 153.076L247.88 156.281L219.184 153.076L204.852 241.813L197.969 327.876C197.969 327.876 200.157 335.008 214.473 330.082C214.473 330.082 225.093 250.256 226.736 248.498C228.378 246.74 245.243 194.6 245.243 194.6H250.518C250.518 194.6 267.382 246.74 269.025 248.498C270.667 250.256 281.287 330.082 281.287 330.082C295.603 335.008 297.791 327.876 297.791 327.876L290.909 241.813Z" fill="#1B3540"/>
<path d="M238.835 67.1446C240.647 68.9085 249.565 72.0912 254.274 67.1446L257.468 70.2807C257.468 70.2807 253.827 78.8426 247.438 79.1421C241.049 79.4416 236.43 71.5243 236.43 71.5243L238.835 67.1446Z" fill="#1F436B"/>
<path d="M264.094 66.1806C274.768 61.5846 309.254 49.3686 309.254 49.3686C309.254 49.3686 332.436 20.3241 337.164 16.0132C337.164 16.0132 342.296 16.9373 343.797 23.327C343.797 23.327 328.87 55.2914 320.755 64.4423C312.64 73.5932 271.543 93.3848 271.543 93.3848L264.094 66.1806Z" fill="#1F436B"/>
<path d="M226.731 65.5201C229.905 63.511 245.849 74.1773 245.849 74.1773C245.849 74.1773 266.576 63.1705 271.44 65.3026C271.44 65.3026 275.823 71.1677 277.585 86.248C279.346 101.329 279.463 163.387 279.463 163.387C279.463 163.387 265.527 168.316 246.679 168.316C225.191 168.316 213.63 162.154 213.63 162.154C213.63 162.154 209.796 76.2307 226.731 65.5201Z" fill="#F9AD63"/>
<path d="M239.68 63.9083C239.68 63.9083 241.975 71.1279 239.68 73.9101C239.68 73.9101 242.064 78.9132 246.349 79.1339C251.299 79.3891 253.017 73.9101 253.017 73.9101C253.017 73.9101 250.399 66.9368 253.017 64.4852L239.68 63.9083Z" fill="#EF5640"/>
<path d="M233.952 56.8008C233.952 56.8008 229.121 47.5013 230.079 37.565C231.035 27.6275 246.007 25.3501 256.097 30.2311C256.097 30.2311 253.102 27.3025 254.273 26.4882C255.446 25.6751 257.467 30.8823 257.467 30.8823C257.467 30.8823 260.654 29.9061 261.142 30.8823C261.63 31.8597 257.876 32.3933 257.876 32.3933C257.876 32.3933 264.388 36.0041 258.305 55.2211L233.952 56.8008Z" fill="#872B39"/>
<path d="M233.228 50.9118C233.228 50.9118 229.626 47.3175 229.182 51.5197C228.668 56.3885 233.09 58.3498 233.954 56.8012C234.819 55.2515 233.228 50.9118 233.228 50.9118Z" fill="#F57559"/>
<path d="M258.453 51.1668C258.453 51.1668 262.056 47.5714 262.498 51.7736C263.012 56.6424 258.59 58.6037 257.726 57.0551C256.862 55.5065 258.453 51.1668 258.453 51.1668Z" fill="#F57559"/>
<path d="M245.456 68.5469C237.464 68.5469 232.953 63.3264 232.953 47.667C232.953 39.5911 237.062 34.6357 246.014 34.6357C254.967 34.6357 258.738 39.59 258.738 47.667C258.738 64.4934 253.713 68.5469 245.456 68.5469Z" fill="#F57559"/>
<path d="M256.093 53.2524C256.234 54.0556 255.533 54.8488 254.528 55.0241C253.524 55.1993 252.595 54.6902 252.456 53.887C252.315 53.0838 253.016 52.2895 254.021 52.1154C255.025 51.9401 255.953 52.4493 256.093 53.2524Z" fill="#DC4B44"/>
<path d="M239.657 53.6904C239.603 54.5047 238.735 55.1104 237.717 55.0438C236.7 54.9773 235.918 54.264 235.971 53.4497C236.025 52.6366 236.892 52.0309 237.909 52.0974C238.928 52.1629 239.71 52.8762 239.657 53.6904Z" fill="#DC4B44"/>
<path d="M252.433 45.125C252.327 45.125 252.222 45.0851 252.144 45.0019C251.036 43.8404 249.097 43.8903 249.068 43.8903C248.852 43.8925 248.663 43.725 248.657 43.5032C248.648 43.2835 248.822 43.0994 249.043 43.0916C249.127 43.0861 251.37 43.0339 252.721 44.4505C252.873 44.6114 252.868 44.8632 252.709 45.0152C252.631 45.0895 252.531 45.125 252.433 45.125Z" fill="#872B39"/>
<path d="M237.391 45.125C237.292 45.125 237.194 45.0895 237.116 45.0152C236.956 44.8632 236.951 44.6114 237.102 44.4505C238.452 43.0339 240.692 43.0883 240.78 43.0916C241.001 43.0994 241.173 43.2835 241.166 43.5032C241.16 43.7239 240.966 43.8937 240.755 43.8903C240.74 43.887 238.776 43.8504 237.681 45.0019C237.601 45.0851 237.496 45.125 237.391 45.125Z" fill="#872B39"/>
<path d="M251.747 49.3669C251.747 50.3587 251.301 51.1641 250.75 51.1641C250.197 51.1641 249.75 50.3587 249.75 49.3669C249.75 48.3741 250.197 47.5687 250.75 47.5687C251.301 47.5687 251.747 48.3741 251.747 49.3669Z" fill="#22434D"/>
<path d="M241.075 49.3669C241.075 50.3587 240.628 51.1641 240.077 51.1641C239.524 51.1641 239.078 50.3587 239.078 49.3669C239.077 48.3741 239.524 47.5687 240.077 47.5687C240.628 47.5687 241.075 48.3741 241.075 49.3669Z" fill="#22434D"/>
<path d="M241.078 59.988C241.078 59.988 248.126 60.8944 251.751 59.1549C251.751 59.1549 249.702 63.9539 245.852 63.5235C242.002 63.093 241.078 59.988 241.078 59.988Z" fill="#22434D"/>
<path d="M257.906 52.9414C257.906 52.9414 257.657 44.2487 254.272 37.5671C254.272 37.5671 248.306 40.3238 246.994 39.6727C245.68 39.0226 248.245 37.5671 248.245 37.5671C248.245 37.5671 238.401 40.8119 237.809 40.1619C237.217 39.5107 241.072 37.5671 241.072 37.5671L234.94 39.6727C234.94 39.6727 233.049 47.4946 233.831 52.9414C233.831 52.9414 231.196 48.3942 230.871 45.2548C230.544 42.1143 231.924 33.1631 241.162 32.513C250.399 31.8618 255.587 33.9574 257.875 38.1984C260.164 42.4393 259.88 47.6577 257.906 52.9414Z" fill="#872B39"/>
<path d="M246.852 57.4766C246.075 57.4766 245.285 57.2758 245.047 57.2092L245.274 56.3916C246.113 56.6224 247.428 56.761 247.715 56.4227C247.814 56.3051 247.775 56.0322 247.605 55.6739C246.45 53.2167 246.209 46.9967 246.199 46.7338L247.049 46.7027C247.051 46.766 247.292 53.0126 248.374 55.3123C248.704 56.0134 248.701 56.5713 248.364 56.9696C248.037 57.3579 247.447 57.4766 246.852 57.4766Z" fill="#DC4B44"/>
<path d="M255.695 69.4323C255.695 69.4323 270.161 114.338 271.539 150.876C271.539 150.876 276.759 152.314 282.639 144.308C288.517 136.302 285.021 72.8901 273.757 62.3314C273.757 62.3314 268.648 61.1666 255.695 69.4323Z" fill="#2A5A9F"/>
<path d="M258.053 77.2871C258.053 77.2871 260.642 71.2701 259.492 67.1456C258.341 63.02 254.273 67.1456 254.273 67.1456C254.273 67.1456 255.917 73.9003 258.053 77.2871Z" fill="#1F436B"/>
<path d="M229.017 66.1806C218.344 61.5846 183.857 49.3686 183.857 49.3686C183.857 49.3686 160.616 19.4777 155.888 15.1668C155.888 15.1668 150.038 18.477 149.641 25.3283C149.641 25.3283 164.242 55.2914 172.355 64.4423C180.47 73.5932 221.569 93.3848 221.569 93.3848L229.017 66.1806Z" fill="#1F436B"/>
<path d="M237.416 69.4323C237.416 69.4323 222.95 114.338 221.572 150.876C221.572 150.876 216.351 152.314 210.472 144.308C204.594 136.302 208.091 72.8901 219.353 62.3314C219.353 62.3314 224.462 61.1666 237.416 69.4323Z" fill="#2A5A9F"/>
<path d="M235.054 77.2871C235.054 77.2871 232.465 71.2701 233.615 67.1456C234.765 63.02 238.833 67.1456 238.833 67.1456C238.833 67.1456 237.19 73.9003 235.054 77.2871Z" fill="#1F436B"/>
<path d="M310.547 351.02H281.825C279.818 339.602 283.02 328.173 283.02 328.173L296.15 325.918C297.344 333.136 298.786 335.981 300.78 337.447C300.793 337.447 300.793 337.447 300.793 337.447C302.246 338.506 303.983 338.851 306.151 339.602C308.626 340.464 309.931 342.028 310.585 343.728C311.878 347.102 310.547 351.02 310.547 351.02Z" fill="#61242F"/>
<path d="M310.583 343.728C303.501 344.616 287.945 346.13 288.893 342.029C289.682 338.605 296.246 337.681 300.778 337.447C300.791 337.447 300.791 337.447 300.791 337.447C302.244 338.507 303.981 338.852 306.149 339.603C308.624 340.465 309.929 342.029 310.583 343.728Z" fill="#872B39"/>
<path d="M214.355 351.02H185.634C185.634 351.02 184.723 348.335 185.141 345.489C185.486 343.174 186.717 340.747 190.031 339.602C192.519 338.74 194.428 338.42 195.993 336.954C197.692 335.352 198.96 332.397 200.032 325.918L213.162 328.173C213.162 328.173 216.351 339.602 214.355 351.02Z" fill="#61242F"/>
<path d="M185.141 345.489C185.486 343.174 186.717 340.747 190.031 339.602C192.519 338.74 194.428 338.42 195.992 336.954C199.625 338.075 204.711 340.131 206.288 343.247C208.481 347.522 191.693 346.844 185.141 345.489Z" fill="#872B39"/>
<path d="M420.563 348.962C420.563 350.17 420.439 351.02 420.439 351.02H385.547C385.547 350.329 385.559 349.639 385.596 348.962C385.991 339.836 388.873 331.917 388.873 331.917L397.592 328.173C398.343 332.668 400.278 335.537 402.704 337.41C403.344 337.915 404.01 338.333 404.698 338.69C405.019 338.863 405.34 339.023 405.671 339.171C406.399 339.503 407.15 339.774 407.901 339.996C410.981 340.932 414.097 341.129 416.277 341.461C419.996 342.04 420.563 346.339 420.563 348.962Z" fill="#203E50"/>
<path d="M420.563 348.962C420.563 350.17 420.439 351.02 420.439 351.02H385.547C385.547 350.329 385.559 349.639 385.596 348.962H420.563Z" fill="#2A5465"/>
<path d="M404.69 338.69L399.85 340.242L398.828 338.468L402.695 337.41C403.335 337.915 404.001 338.333 404.69 338.69Z" fill="#2A5465"/>
<path d="M407.897 339.996L404.633 342.164L402.625 341.376L405.667 339.171C406.395 339.504 407.146 339.775 407.897 339.996Z" fill="#2A5465"/>
<path d="M287.246 348.962C287.161 350.145 286.852 351.02 286.852 351.02H263.612C263.316 350.341 263.106 349.665 262.958 348.962C260.668 337.84 276.113 324.231 276.113 324.231L281.015 330.771C281.015 330.771 280.448 341.24 284.598 343.421C287.086 344.726 287.407 347.189 287.246 348.962Z" fill="#203E50"/>
<path d="M262.953 348.962H287.241C287.155 350.145 286.847 351.02 286.847 351.02H263.607C263.31 350.341 263.101 349.665 262.953 348.962Z" fill="#2A5465"/>
<path d="M283.537 342.586C283.537 342.586 273.745 340.354 269.281 343.244V341.628C269.281 341.628 277.517 337.625 283.537 342.586Z" fill="#2A5465"/>
<path d="M281.597 340.104C281.597 340.104 275.345 337.245 269.281 340.104L269.973 338.473C269.973 338.473 277.216 335.734 281.597 340.104Z" fill="#2A5465"/>
<path d="M410.028 250.085C410.04 259.433 401.739 335.647 401.739 335.647C393.438 336.473 386.786 334.81 386.786 334.81C384.508 296.185 384.286 262.968 384.286 262.968L344.504 233.149L344.405 233.076C344.405 233.076 344.258 233.753 343.987 234.961C342.016 243.705 333.678 280.334 330.205 288.722C326.251 298.28 283.024 338.471 283.024 338.471C274.993 337.362 268.18 331.546 268.18 331.546C283.698 305.804 304.858 279.989 304.858 279.989C306.508 270.715 307.691 250.085 308.393 234.665C308.405 234.431 308.417 234.185 308.43 233.95C308.898 223.506 309.132 215.624 309.132 215.624L301.84 200.672L348.163 183.65L358.545 196.94C358.545 196.94 360.922 199.144 364.666 202.667C364.839 202.827 365.011 202.987 365.183 203.148C379.089 216.264 410.028 245.898 410.028 250.085Z" fill="#91C1DF"/>
<path d="M308.391 234.666C308.403 234.432 308.415 234.186 308.427 233.952C318.182 228.656 316.543 220.207 316.519 220.12L317.122 219.997C317.147 220.084 318.896 229.16 308.391 234.666Z" fill="#6196B4"/>
<path d="M343.789 227.177C344.122 229.024 344.368 231.019 344.503 233.149L344.405 233.076C344.405 233.076 344.257 233.753 343.986 234.961C343.555 220.476 337.582 211.917 337.508 211.818L338.013 211.461C338.075 211.534 341.843 216.979 343.666 226.475C350.711 220.218 343.813 207.396 343.74 207.273L344.281 206.978C344.356 207.113 351.66 220.686 343.789 227.177Z" fill="#6196B4"/>
<path d="M365.184 203.148C365.172 203.16 365.148 203.16 365.136 203.172C364.853 203.283 364.52 203.332 364.175 203.332C360.764 203.332 355.036 198.553 354.766 198.319L355.172 197.852C357.032 199.428 362.217 203.209 364.668 202.668C364.841 202.827 365.013 202.987 365.184 203.148Z" fill="#6196B4"/>
<path d="M305.078 120.948C305.078 120.948 319.168 118.681 326.229 123.181C333.288 127.682 342.558 139.428 342.558 139.428C342.558 139.428 331.552 140.882 330.307 148.357C330.307 148.357 322.313 129.318 305.078 120.948Z" fill="#ACBFC3"/>
<path d="M283.883 128.296C277.923 131.517 267.959 143.614 267.51 151.055C267.07 158.311 272.445 164.985 276.069 170.658C287.377 188.363 299.282 204.004 304.341 224.769C304.373 224.901 330.205 235.152 360.522 198.709C360.522 198.709 343.391 175.661 337.473 156.038C335.064 148.051 332.613 139.565 327.986 132.526C322.889 124.771 314.16 120.21 305.081 120.946C297.397 121.569 289.755 125.121 283.883 128.296Z" fill="#D2DADC"/>
<path d="M281.383 120.87C281.383 120.87 285.196 127.384 283.434 130.966C283.434 130.966 296.515 135.482 296.515 128.163C296.515 128.163 294.05 122.677 294.979 119.13L281.383 120.87Z" fill="#EF5640"/>
<path d="M310.458 165.475C310.458 165.475 303.182 167.542 301.345 170.118C299.509 172.694 297.875 178.473 297.875 178.473H310.458L312.824 174.119L315.594 168.317L310.458 165.475Z" fill="#EF5640"/>
<path d="M298.422 113.606C298.422 113.606 303.531 111.462 300.226 96.0959C298.036 85.9144 294.882 84.3968 292.843 84.307C292.843 84.307 290.349 80.5508 281.7 82.349C275.775 83.5804 271.049 87.179 268.968 93.8362C266.796 100.785 271.14 115.68 276.861 117.162L298.422 113.606Z" fill="#203E50"/>
<path d="M299.629 103.223C299.629 103.223 302.849 98.7409 304.065 103.158C305.474 108.276 301.089 111.154 299.892 109.65C298.694 108.146 299.629 103.223 299.629 103.223Z" fill="#F57559"/>
<path d="M272.693 107.945C272.693 107.945 268.205 104.736 268.472 109.309C268.782 114.609 273.859 115.927 274.511 114.117C275.162 112.308 272.693 107.945 272.693 107.945Z" fill="#F57559"/>
<path d="M289.657 124.247C298.206 122.836 302.111 116.455 299.348 99.7039C297.922 91.0633 292.652 86.4884 283.075 88.0681C273.497 89.6489 270.338 95.6138 271.763 104.254C274.733 122.253 280.823 125.703 289.657 124.247Z" fill="#F57559"/>
<path d="M275.578 109.76C275.57 110.645 276.46 111.37 277.566 111.381C278.672 111.39 279.575 110.682 279.583 109.798C279.591 108.914 278.701 108.188 277.595 108.178C276.49 108.168 275.587 108.877 275.578 109.76Z" fill="#DC4B44"/>
<path d="M293.253 107.327C293.452 108.188 294.488 108.683 295.566 108.433C296.642 108.183 297.353 107.281 297.152 106.42C296.952 105.559 295.916 105.063 294.839 105.314C293.763 105.565 293.052 106.467 293.253 107.327Z" fill="#DC4B44"/>
<path d="M277.988 100.432C277.904 100.432 277.819 100.407 277.744 100.356C277.547 100.221 277.495 99.9513 277.63 99.755C278.825 98 281.224 97.6639 281.327 97.6506C281.578 97.6217 281.78 97.7859 281.813 98.0222C281.844 98.2585 281.678 98.477 281.442 98.5092C281.42 98.5114 279.32 98.812 278.347 100.242C278.262 100.365 278.126 100.432 277.988 100.432Z" fill="#22434D"/>
<path d="M294.091 97.7734C294 97.7734 293.908 97.7457 293.83 97.6858C292.446 96.6408 290.366 97.0357 290.346 97.0391C290.107 97.0912 289.883 96.9337 289.836 96.6985C289.79 96.4644 289.943 96.2359 290.177 96.1904C290.277 96.1704 292.658 95.7167 294.351 96.9947C294.543 97.1378 294.58 97.4107 294.437 97.6004C294.351 97.7135 294.222 97.7734 294.091 97.7734Z" fill="#22434D"/>
<path d="M279.546 104.838C279.722 105.901 280.342 106.683 280.931 106.586C281.521 106.488 281.857 105.548 281.682 104.487C281.508 103.425 280.887 102.643 280.297 102.741C279.707 102.837 279.371 103.777 279.546 104.838Z" fill="#22434D"/>
<path d="M290.968 102.957C291.144 104.018 291.764 104.8 292.354 104.703C292.944 104.605 293.28 103.665 293.105 102.604C292.93 101.541 292.309 100.76 291.719 100.858C291.129 100.954 290.793 101.894 290.968 102.957Z" fill="#22434D"/>
<path d="M294.172 112.596C294.172 112.596 286.754 114.586 282.641 113.796C282.641 113.796 285.484 117.377 289.543 116.344C293.603 115.311 294.172 112.596 294.172 112.596Z" fill="#22434D"/>
<path d="M294.527 91.9284C294.527 91.9284 284.875 98.9172 272.76 99.4486L273.104 110.232C273.104 110.232 261.814 89.428 284.144 85.7439C306.475 82.0598 299.976 105.297 299.976 105.297C299.976 105.297 299.283 95.2742 294.527 91.9284Z" fill="#1B3540"/>
<path d="M286.63 109.699L286.568 108.766C286.581 108.765 287.869 108.665 288.204 107.868C288.343 107.539 287.794 106.493 287.309 105.569C286.637 104.287 285.801 102.689 285.445 100.916L286.362 100.732C286.69 102.374 287.492 103.905 288.137 105.137C288.854 106.505 289.373 107.495 289.065 108.23C288.506 109.562 286.707 109.694 286.63 109.699Z" fill="#DC4B44"/>
<path d="M299.758 91.9553C283.524 84.9099 268.203 99.5176 268.203 99.5176C268.203 99.5176 266.417 87.681 269.545 84.9099C270.358 84.1833 271.233 83.5432 272.144 82.9763C279.312 78.4558 288.845 78.5423 293.217 80.0943C294.117 80.4149 294.806 80.7965 295.201 81.2025C297.787 83.8882 299.758 91.9553 299.758 91.9553Z" fill="#CF2548"/>
<path d="M297.789 89.319C297.789 89.319 284.155 86.6211 271.444 95.0332C271.444 95.0332 270.631 87.3977 272.147 82.9759C279.314 78.4553 288.848 78.5419 293.22 80.0938C295.769 83.0003 297.789 89.319 297.789 89.319Z" fill="#D2DADC"/>
<path d="M269.547 98.125C269.547 98.125 271.708 88.9453 274.62 86.3594C279.464 82.0585 293.075 80.582 300.229 83.1679C307.383 85.7537 300.229 93.5701 300.229 93.5701C300.229 93.5701 288.827 85.4021 269.547 98.125Z" fill="#9F2240"/>
<path d="M290.599 159.125C290.599 159.125 296.171 167.756 305.66 172.833C305.66 172.833 317.531 162.529 332.923 163.456C332.923 163.456 320.166 186.472 309.211 189.022C303.456 190.361 282.641 176.577 282.641 176.577C282.641 176.577 286.796 161.928 290.599 159.125Z" fill="#F57559"/>
<path d="M270.077 143.477C275.175 135.176 286.94 147.448 290.943 156.211C294.946 164.976 297.868 166.834 297.868 166.834C297.868 166.834 286.114 171.745 286.197 180.555C286.197 180.555 258.949 161.592 270.077 143.477Z" fill="#ACBFC3"/>
<path d="M305.656 169.041C305.656 169.041 312.816 162.017 336.358 152.849L333.317 143.287C336.019 139.734 340.984 139.734 340.984 139.734C340.984 139.734 353.046 156.765 350.969 161.853C349.672 165.031 324.514 168.365 305.656 169.041Z" fill="#EF5640"/>
<path d="M331.438 155.145C331.438 155.145 331.624 154.137 332.494 152.909C333.363 151.681 333.128 149.446 333.44 148.754C333.753 148.06 335.604 145.229 336.833 144.678C338.062 144.127 339.675 143.226 340.018 144.787C340.361 146.346 337.816 145.904 336.674 148.148C336.674 148.148 339.174 147.339 341.156 147.809C343.14 148.279 343.702 150.092 341.252 150.032C339.297 149.983 336.78 151.377 336.78 151.377C336.78 151.377 339.327 151.76 338.916 152.934C338.348 154.558 335.241 153.558 331.438 155.145Z" fill="#F57559"/>
<path d="M157.323 187.21C159.427 192.599 168.048 201.836 168.048 201.836C168.048 201.836 189.108 189.212 198.823 194.523C208.539 199.835 216.26 203.075 222.561 200.762C228.861 198.449 201.843 149.311 201.843 149.311L166.811 135.944C166.811 135.944 166.047 144.804 162.044 146.378C158.042 147.952 153.774 162.578 154.061 165.349C154.347 168.12 157.323 187.21 157.323 187.21Z" fill="#3D6174"/>
<path d="M196.745 202.157C196.745 202.157 187.713 219.863 169.063 242.54C169.063 242.54 167.151 269.507 117.835 311.936L112.672 307.874C112.672 307.874 142.041 261.869 147.915 247.764C153.79 233.659 144.668 220.735 171.694 185.058L196.745 202.157Z" fill="#EF5640"/>
<path d="M167.989 170.825C160.213 185.721 157.603 204.763 157.603 204.763L154.062 213.696C154.062 213.696 166.622 220.47 181.126 222.934L186.943 207.538L167.989 170.825Z" fill="#61242F"/>
<path d="M208.541 200.762C208.541 200.762 212.391 220.263 211.756 249.617C211.756 249.617 226.93 271.992 214.408 335.832H207.839C207.839 335.832 202.474 281.517 198.368 266.798C194.262 252.081 179.102 247.565 178.281 202.815L208.541 200.762Z" fill="#F57559"/>
<path d="M212.394 221.698C212.394 221.698 200.041 223.915 178.278 222.893L177.933 220.442L177.848 219.813L175.593 203.95C175.593 203.95 173.499 201.364 171.344 197.152C171.085 196.659 170.839 196.153 170.593 195.624C167.662 189.38 165.063 180.302 167.981 170.832L172.576 171.04L173.216 171.078L188.587 171.779L189.239 171.817L194.289 172.051L195.078 172.087L198.354 172.235C198.354 172.235 215.006 187.224 212.037 214.936L212.247 218.791L212.271 219.419L212.394 221.698Z" fill="#872B39"/>
<path d="M173.217 171.077C172.785 172.345 169.879 181.755 171.344 197.15C171.086 196.658 170.839 196.152 170.593 195.623C169.497 181.545 172.022 172.764 172.577 171.039C172.65 170.83 172.687 170.732 172.687 170.719L173.265 170.928C173.265 170.94 173.241 170.99 173.217 171.077Z" fill="#61242F"/>
<path d="M212.267 219.419C207.896 220.539 200.481 220.848 193.435 220.848C187.118 220.848 181.12 220.589 177.929 220.442L177.844 219.813C183.374 220.084 197.932 220.65 207.317 219.629L206.713 209.713C206.861 198.148 203.363 188.271 199.988 181.447C191.441 179.896 189.088 173.565 188.583 171.779C188.509 171.496 188.472 171.324 188.472 171.311L189.076 171.213C189.076 171.225 189.125 171.447 189.235 171.816C189.79 173.663 192.081 179.169 199.631 180.745C197.352 176.299 195.197 173.257 194.285 172.05C194.015 171.681 193.843 171.471 193.83 171.459L194.298 171.065C194.323 171.09 194.606 171.435 195.074 172.087C197.932 175.966 207.575 190.562 207.329 209.689L207.932 219.554C209.571 219.358 211.036 219.112 212.243 218.791L212.267 219.419Z" fill="#61242F"/>
<path d="M180.804 104.004C175.901 101.305 140.577 115.157 140.577 115.157C140.577 115.157 135.351 124.48 138.608 128.134C141.866 131.79 153.424 130.178 156.965 128.134C160.506 126.091 169.885 124.546 169.885 124.546L180.804 104.004Z" fill="#91C1DF"/>
<path d="M212.041 74.5948C212.041 74.5948 219.338 77.4113 222.007 85.8179C224.676 94.2244 216.696 115.508 219.454 125.291C222.212 135.075 221.784 153.548 213.171 157.449C204.558 161.349 186.895 154.37 183.103 143.695C179.31 133.021 180.947 92.5826 188.237 78.8291C195.526 65.0756 210.286 72.0034 212.041 74.5948Z" fill="#EF294D"/>
<path d="M203.656 110.866C205.581 112.941 210.528 109.243 210.528 109.243C210.528 109.243 210.428 127.588 205.096 128.994C199.766 130.401 186.176 114.544 186.735 110.233C187.295 105.922 199.389 106.265 203.656 110.866Z" fill="#91C1DF"/>
<path d="M183.109 106.279C183.109 106.279 188.503 110.858 197.898 113.037C207.294 115.215 212.386 110.797 217.191 116.855C224.403 125.949 212.67 142.712 206.495 151.399C204.194 154.637 199.337 163.619 198.356 172.237C198.356 172.237 182.053 176.974 167.995 170.824L166.945 150.824C166.945 150.824 158.083 123.871 183.109 106.279Z" fill="#1B3540"/>
<path d="M199.961 125.738C199.961 125.738 207.41 107.986 209.567 106.852C211.724 105.718 217.194 108.439 218.294 110.868C219.392 113.296 218.294 118.593 218.294 118.593C218.294 118.593 212.419 111.887 199.961 125.738Z" fill="#91C1DF"/>
<path d="M235.64 200.758C232.253 207.692 223.938 209.688 223.938 209.688C223.938 209.688 223.311 208.727 222.251 207.003C222.14 206.83 222.017 206.633 221.906 206.436C215.367 195.832 195.376 161.9 195.771 144.25C196.227 123.165 209.984 111.587 209.984 111.587C216.967 113.25 219.173 115.159 219.173 115.159C219.173 115.159 221.525 127.155 219.369 141.59C217.214 156.012 213.298 159.831 215.268 160.915C217.226 161.986 215.268 164.142 215.268 164.142C215.268 164.142 226.858 180.288 229.026 185.313C230.429 188.589 232.819 194.157 234.31 197.63C234.407 197.876 234.506 198.123 234.605 198.345C235.233 199.81 235.64 200.758 235.64 200.758Z" fill="#6196B4"/>
<path d="M215.508 115.156C215.508 115.156 207.21 121.307 212.044 130.706L235.045 154.518C222.421 167.97 221.169 173.493 212.044 179.695L215.508 185.059C215.508 185.059 247.468 160.497 247.516 154.518C247.536 151.958 227.994 121 215.508 115.156Z" fill="#F57559"/>
<path d="M211.54 179.695C211.54 179.695 207.156 180.182 204.395 180.872C201.634 181.562 197.953 182.252 197.837 182.827C197.723 183.402 203.934 182.827 203.934 182.827C203.934 182.827 198.874 184.906 198.758 185.707C198.643 186.508 205.2 185.128 205.2 185.128C205.2 185.128 201.059 187.659 201.289 188.349C201.519 189.039 206.62 187.314 206.62 187.314C206.62 187.314 205.672 189.729 204.688 190.879C204.688 190.879 205.676 191.423 207.681 189.195C209.686 186.969 212.888 187.683 215.422 185.707C217.955 183.73 213.847 179.397 211.54 179.695Z" fill="#F57559"/>
<path d="M188.039 109.233C188.039 109.233 181.726 113.313 177.739 123.166C173.751 133.019 161.171 151.56 158.224 156.35C155.277 161.142 157.329 187.211 157.329 187.211C157.329 187.211 153.634 171.405 151.992 165.246C150.349 159.088 157.295 143.872 158.339 143.064C159.382 142.256 164.719 143.734 163.693 137.555C162.666 131.376 176.987 104.753 180.808 104.003C180.808 104.003 186.932 105.154 188.039 109.233Z" fill="#6196B4"/>
<path d="M168.51 110.566C168.399 110.774 168.276 110.984 168.128 111.182C166.7 113.238 164.039 114.877 164.039 114.877C164.039 114.877 159.223 121.626 159.174 122.401C159.125 123.067 150.811 129.102 147.117 128.979H147.104C146.598 128.966 146.18 128.831 145.884 128.56C143.692 126.49 153.349 109.125 155.479 105.381C155.614 105.133 155.725 104.949 155.799 104.826C155.848 104.727 155.886 104.666 155.886 104.666C155.886 104.666 154.185 98.3355 161.28 99.518C167.18 100.491 168.349 105.183 168.966 108.324C169.113 109.075 168.904 109.839 168.51 110.566Z" fill="#6196B4"/>
<path d="M143.743 117.129C148.617 110.723 165.765 98.2983 174.797 94.6198L177.056 98.8175C177.056 98.8175 159.601 114.162 155.501 120.727C151.401 127.291 146.321 130.005 141.469 127.819C136.616 125.633 142.718 118.477 143.743 117.129Z" fill="#F57559"/>
<path d="M166.814 109.249L165.89 110.308L165.422 110.849L163.894 112.599C163.894 112.599 160.051 117.254 160.2 119.126C160.31 120.468 152.908 126.479 147.12 128.979C144.767 130.002 142.674 130.445 141.453 129.742C137.267 127.329 138.202 120.075 140.579 115.16C142.648 110.874 151.8 105.344 154.152 103.989C154.448 103.804 154.632 103.694 154.694 103.669C154.706 103.657 154.706 103.657 154.706 103.657L155.581 100.258C155.581 100.258 158.771 98.3361 161.284 99.5187C161.284 99.5187 155.74 99.7528 156.652 101.908C157.589 104.076 165.274 109.174 166.814 109.249Z" fill="#91C1DF"/>
<path d="M186.943 91.476C181.364 93.7667 182.164 98.8164 177.053 98.8164C173.887 98.8164 173.469 95.1956 173.469 95.1956C174.898 92.1038 175.808 86.8323 176.006 84.3196C176.215 81.807 177.053 82.7799 177.053 82.7799C177.053 82.5458 177.041 82.3251 177.029 82.1032C176.954 80.4159 176.646 79.1834 177.755 79.9112C179.011 80.7232 179.443 85.5022 179.443 85.5022C180.476 78.5312 178.938 77.4961 180.145 78.1118C181.794 78.9505 181.806 85.1084 181.806 85.2925C183.137 81.2401 182.78 78.925 183.703 79.849C184.64 80.7853 183.235 88.2245 182.682 90.959C182.559 91.5747 182.472 91.9563 182.472 91.9563C186.894 89.7887 186.943 91.476 186.943 91.476Z" fill="#F57559"/>
<path d="M182.682 90.9597C182.558 91.5754 182.472 91.957 182.472 91.957C182.472 91.957 180.427 91.7595 178.938 93.9648C178.938 93.9648 179.356 91.0085 182.682 90.9597Z" fill="#EF5640"/>
<path d="M177.355 87.7793C177.393 87.188 177.639 83.8012 177.048 82.7784C177.048 82.5444 177.036 82.3236 177.023 82.1017C178.304 82.3724 177.492 87.0649 177.355 87.7793Z" fill="#EF5640"/>
<path d="M180.82 117.162C180.82 117.162 184.591 106.943 185.79 104.662C186.99 102.38 193.237 102.772 197.965 103.654C202.693 104.536 203.659 110.866 203.659 110.866C203.659 110.866 189.276 104.079 180.82 117.162Z" fill="#91C1DF"/>
<path d="M205.096 97.0512C205.096 97.0512 200.578 105.392 200.65 114.642C200.65 114.642 193.313 119.628 190.688 113.383C190.688 113.383 193.474 105.2 192.127 94.1547C191.226 86.7577 205.096 97.0512 205.096 97.0512Z" fill="#EF5640"/>
<path d="M190.69 85.478C190.69 85.478 189.348 80.6968 186.959 84.0581C184.191 87.9519 187.012 91.7369 188.488 90.8339C189.965 89.9309 190.69 85.478 190.69 85.478Z" fill="#F57559"/>
<path d="M212.016 97.771C212.016 97.771 216.799 96.4387 215.165 100.225C213.271 104.611 208.571 104.161 208.578 102.43C208.585 100.7 212.016 97.771 212.016 97.771Z" fill="#F57559"/>
<path d="M192.648 106.332C185.852 102.504 184.516 95.9049 192.014 82.5896C195.881 75.7217 201.748 73.4775 209.361 77.764C216.973 82.0504 217.807 88.0685 213.939 94.9364C205.883 109.243 199.669 110.285 192.648 106.332Z" fill="#F57559"/>
<path d="M209.012 98.4183C208.746 99.1682 207.77 99.5077 206.832 99.1749C205.893 98.8432 205.349 97.9657 205.614 97.2158C205.879 96.4648 206.855 96.1264 207.794 96.4581C208.732 96.7909 209.277 97.6673 209.012 98.4183Z" fill="#DC4B44"/>
<path d="M194.821 90.9168C194.387 91.5835 193.359 91.6834 192.525 91.1398C191.692 90.5951 191.368 89.6145 191.803 88.9478C192.237 88.2811 193.266 88.1812 194.099 88.7248C194.933 89.2684 195.256 90.2501 194.821 90.9168Z" fill="#DC4B44"/>
<path d="M209.983 89.8086C209.807 89.8086 209.649 89.691 209.604 89.5146C209.219 87.9982 207.539 87.1052 207.522 87.0974C207.331 86.9975 207.257 86.7613 207.357 86.5705C207.456 86.3808 207.69 86.3053 207.883 86.4052C207.965 86.4484 209.891 87.4724 210.36 89.3238C210.413 89.5313 210.287 89.7443 210.078 89.7964C210.046 89.8053 210.014 89.8086 209.983 89.8086Z" fill="#22434D"/>
<path d="M200.65 83.1699C200.581 83.1699 200.511 83.1511 200.448 83.1133C200.432 83.1034 198.794 82.1305 197.3 82.5864C197.093 82.6508 196.876 82.5343 196.814 82.3279C196.752 82.1216 196.867 81.9042 197.073 81.8409C198.9 81.2807 200.773 82.3989 200.852 82.4466C201.036 82.5576 201.095 82.7961 200.983 82.9813C200.91 83.1022 200.782 83.1699 200.65 83.1699Z" fill="#22434D"/>
<path d="M207.175 93.0333C206.699 93.8775 205.934 94.3467 205.466 94.0827C204.996 93.8187 205.002 92.9201 205.477 92.077C205.953 91.2328 206.718 90.7625 207.186 91.0265C207.656 91.2905 207.651 92.1891 207.175 93.0333Z" fill="#22434D"/>
<path d="M197.644 87.9229C197.168 88.7671 196.403 89.2375 195.934 88.9734C195.465 88.7094 195.471 87.8109 195.946 86.9667C196.421 86.1236 197.187 85.6532 197.656 85.9172C198.124 86.1813 198.119 87.0798 197.644 87.9229Z" fill="#22434D"/>
<path d="M194.346 96.5891C194.346 96.5891 198.246 99.5655 201.063 99.6553C201.063 99.6553 198.067 102.096 195.913 100.513C193.76 98.9298 194.346 96.5891 194.346 96.5891Z" fill="#22434D"/>
<path d="M205.125 91.329C205.125 91.329 206.915 89.5984 207.648 90.2074C208.38 90.8165 207.997 92.9464 207.997 92.9464L209.562 92.9863L208.268 92.4649C208.268 92.4649 208.685 90.2529 207.879 89.7959C206.734 89.1425 205.125 91.329 205.125 91.329Z" fill="#22434D"/>
<path d="M198.389 87.8672C198.389 87.8672 198.941 85.4389 198.04 85.1283C197.14 84.8176 195.518 86.2498 195.518 86.2498L194.672 84.9308L195.789 85.7683C195.789 85.7683 197.464 84.2652 198.273 84.7156C199.425 85.3579 198.389 87.8672 198.389 87.8672Z" fill="#22434D"/>
<path d="M211.168 80.6087C211.168 80.6087 208.733 77.2252 205.371 79.912C202.008 82.5977 194.424 86.8975 190.693 85.4764C186.961 84.0565 198.856 68.1598 209.182 72.8145C219.509 77.4704 218.58 92.6239 214.284 97.4417C209.989 102.26 212.021 97.7712 212.021 97.7712C212.021 97.7712 212.307 90.9355 213.743 86.4061C215.178 81.8756 211.168 80.6087 211.168 80.6087Z" fill="#EF294D"/>
<path d="M199.714 95.0391C199.525 95.0391 199.328 95.0135 199.125 94.9625L199.331 94.1472C200.026 94.3235 200.367 94.0251 200.532 93.7445C200.763 93.3473 200.73 92.8359 200.547 92.644C200.44 92.532 200.257 92.5431 199.999 92.6784L199.609 91.9318C200.465 91.4836 200.975 91.8741 201.156 92.0638C201.619 92.5486 201.663 93.4727 201.258 94.1682C200.928 94.734 200.373 95.0391 199.714 95.0391Z" fill="#DC4B44"/>
<path d="M249.488 153.574C249.082 159.548 234.302 178.995 231.838 179.685C231.198 179.858 230.545 180.215 229.929 180.633C229.671 180.818 229.412 181.015 229.166 181.212C227.762 182.345 226.702 183.65 226.702 183.65C222.391 183.368 210.285 177.763 214.177 176.532C214.411 176.457 214.669 176.322 214.953 176.126C215.113 176.015 215.285 175.892 215.458 175.731C220.039 171.888 228.956 156.295 229.018 155.114C229.067 153.82 230.607 153.574 230.607 153.574C230.607 153.574 222.195 141.221 217.317 139.731C212.441 138.24 209.977 132.34 209.977 132.34C205.161 111.956 219.165 115.159 219.165 115.159C229.487 121.305 249.894 147.588 249.488 153.574Z" fill="#91C1DF"/>
<path d="M229.937 180.634C229.678 180.819 229.42 181.015 229.174 181.213C222.56 180.757 217.018 177.506 214.961 176.127C215.121 176.016 215.293 175.893 215.466 175.732C217.67 177.173 223.311 180.388 229.937 180.634Z" fill="#3D6174"/>
<path d="M168.518 110.566C168.407 110.775 168.284 110.984 168.136 111.182C167.188 111.145 166.288 111.034 165.426 110.849C161.054 109.962 157.692 107.511 155.486 105.381C154.982 104.887 154.538 104.42 154.156 103.989C154.452 103.803 154.637 103.694 154.699 103.668C155.018 104.025 155.388 104.42 155.807 104.826C157.999 106.982 161.411 109.494 165.894 110.307C166.732 110.467 167.606 110.554 168.518 110.566Z" fill="#3D6174"/>
<path d="M234.605 198.346C232.572 201.781 228.816 205.932 222.251 207.004C222.14 206.831 222.017 206.635 221.906 206.437C228.643 205.428 232.376 201.055 234.31 197.631C234.407 197.877 234.506 198.124 234.605 198.346Z" fill="#3D6174"/>
<path d="M122.509 310.412C122.509 310.412 120.969 311.926 119.368 314.711C117.766 317.494 119.528 320.056 111.78 326.51C111.78 326.51 96.1508 317.359 89.0938 305.597C89.0938 305.597 89.2172 302.234 92.6289 301.445C94.464 301.027 99.5132 303.391 104.366 304.303C105.055 304.426 105.745 304.537 106.423 304.586C107.273 304.66 108.11 304.673 108.91 304.574C109.65 304.501 110.352 304.34 111.005 304.069H111.017C112.668 303.391 113.973 302.049 114.65 299.697C114.65 299.697 118.801 302.061 116.03 306.065C116.03 306.065 120.957 303.909 122.509 310.412Z" fill="#D2DADC"/>
<path d="M111.78 326.51C111.78 326.51 96.1508 317.359 89.0938 305.597C89.0938 305.597 91.7171 305.042 93.8851 308.933C96.052 312.838 113.049 321.694 111.78 326.51Z" fill="#ACBFC3"/>
<path d="M111.846 308.01C110.577 310.017 110.602 306.31 108.914 304.573C109.654 304.5 110.356 304.339 111.008 304.068H111.021C111.772 304.881 112.843 306.446 111.846 308.01Z" fill="#ACBFC3"/>
<path d="M106.929 308.12C105.586 309.388 105.155 306.076 104.367 304.302C105.056 304.425 105.746 304.536 106.424 304.585C107.212 305.656 107.951 307.147 106.929 308.12Z" fill="#ACBFC3"/>
<path d="M218.667 351.02H196.559C196.559 351.02 195.636 347.94 196.559 344.553C196.954 343.088 199.244 341.721 201.374 339.812C201.966 339.281 202.532 338.728 203.062 338.099C203.481 337.606 203.862 337.065 204.183 336.486C204.589 335.784 204.91 335.021 205.094 334.183C205.451 332.508 205.316 330.537 204.355 328.173C204.355 328.173 211.881 326.596 214.565 330.697C214.565 330.697 214.824 328.8 217.213 330.068C217.213 330.068 216.868 333.875 217.336 337.065C217.805 340.242 220.773 341.166 218.667 351.02Z" fill="#D2DADC"/>
<path d="M212.911 337.704C212.715 337.926 212.444 338.037 212.172 338.037C211.938 338.037 211.718 337.963 211.52 337.815C210.374 336.903 207.849 335.488 204.18 336.485C204.586 335.783 204.906 335.02 205.09 334.182C206.569 333.64 209.353 333.32 212.788 336.251C213.232 336.62 213.294 337.273 212.911 337.704Z" fill="#ACBFC3"/>
<path d="M211.056 341.375L210.933 341.559C210.638 342.015 210.047 342.163 209.579 341.892C208.075 341.006 204.701 339.331 201.375 339.811C201.966 339.281 202.533 338.727 203.062 338.098C204.701 337.716 207.792 337.507 210.834 340.032C211.228 340.364 211.339 340.944 211.056 341.375Z" fill="#ACBFC3"/>
</svg>
